<?xml version="1.0" encoding="UTF-8"?>
<mxfile host="app.diagrams.net">
  <diagram name="Browse Page Wireframe" id="browse">
    <mxGraphModel dx="1434" dy="844" grid="1" gridSize="10" guides="1" tooltips="1" connect="1" arrows="1" fold="1" page="1" pageScale="1" pageWidth="1200" pageHeight="1600">
      <root>
        <mxCell id="0"/>
        <mxCell id="1" parent="0"/>
        <mxCell id="browser" value="" style="rounded=0;whiteSpace=wrap;html=1;fillColor=#f5f5f5;strokeColor=#666666;" vertex="1" parent="1">
          <mxGeometry x="40" y="40" width="1120" height="1520" as="geometry"/>
        </mxCell>
        <mxCell id="header" value="HEADER - Indigenous Art Atlas | Browse (highlighted)" style="rounded=0;whiteSpace=wrap;html=1;fillColor=#dae8fc;strokeColor=#6c8ebf;fontStyle=1" vertex="1" parent="1">
          <mxGeometry x="40" y="40" width="1120" height="60" as="geometry"/>
        </mxCell>
        <mxCell id="filters-sidebar" value="FILTERS SIDEBAR (25%)" style="rounded=0;whiteSpace=wrap;html=1;fillColor=#fff2cc;strokeColor=#d6b656;fontStyle=1;align=left;verticalAlign=top;" vertex="1" parent="1">
          <mxGeometry x="60" y="140" width="280" height="1000" as="geometry"/>
        </mxCell>
        <mxCell id="search-box" value="🔍 [Search by title, artist, keywords...]" style="rounded=0;whiteSpace=wrap;html=1;fillColor=#ffffff;strokeColor=#666666;align=left;fontSize=12;" vertex="1" parent="1">
          <mxGeometry x="80" y="180" width="240" height="35" as="geometry"/>
        </mxCell>
        <mxCell id="filter-type-label" value="Art Type" style="text;html=1;strokeColor=none;fillColor=none;align=left;verticalAlign=middle;whiteSpace=wrap;rounded=0;fontSize=13;fontStyle=1" vertex="1" parent="1">
          <mxGeometry x="80" y="240" width="240" height="20" as="geometry"/>
        </mxCell>
        <mxCell id="filter-type" value="☐ Cave Art (23)&#xa;☐ Rock Art (45)&#xa;☐ Mural (18)&#xa;☐ Sculpture (12)&#xa;☐ Installation (9)&#xa;☐ Gallery Piece (35)" style="rounded=0;whiteSpace=wrap;html=1;fillColor=#f5f5f5;strokeColor=#666666;align=left;verticalAlign=top;fontSize=11;" vertex="1" parent="1">
          <mxGeometry x="80" y="265" width="240" height="120" as="geometry"/>
        </mxCell>
        <mxCell id="filter-period-label" value="Art Period" style="text;html=1;strokeColor=none;fillColor=none;align=left;verticalAlign=middle;whiteSpace=wrap;rounded=0;fontSize=13;fontStyle=1" vertex="1" parent="1">
          <mxGeometry x="80" y="405" width="240" height="20" as="geometry"/>
        </mxCell>
        <mxCell id="filter-period" value="☐ Ancient (67)&#xa;☐ Colonial Era (15)&#xa;☐ Modern (28)&#xa;☐ Contemporary (32)" style="rounded=0;whiteSpace=wrap;html=1;fillColor=#f5f5f5;strokeColor=#666666;align=left;verticalAlign=top;fontSize=11;" vertex="1" parent="1">
          <mxGeometry x="80" y="430" width="240" height="80" as="geometry"/>
        </mxCell>
        <mxCell id="btn-clear" value="Clear Filters" style="rounded=1;whiteSpace=wrap;html=1;fillColor=#ffffff;strokeColor=#d2691e;fontColor=#d2691e;fontSize=11;fontStyle=1" vertex="1" parent="1">
          <mxGeometry x="80" y="530" width="240" height="30" as="geometry"/>
        </mxCell>
        <mxCell id="main-content" value="MAIN CONTENT (75%)" style="rounded=0;whiteSpace=wrap;html=1;fillColor=#e1d5e7;strokeColor=#9673a6;fontStyle=1;align=left;verticalAlign=top;" vertex="1" parent="1">
          <mxGeometry x="360" y="140" width="780" height="1000" as="geometry"/>
        </mxCell>
        <mxCell id="results-header" value="Showing 142 Art Entries" style="text;html=1;strokeColor=none;fillColor=none;align=left;verticalAlign=middle;whiteSpace=wrap;rounded=0;fontSize=16;fontStyle=1" vertex="1" parent="1">
          <mxGeometry x="380" y="160" width="300" height="25" as="geometry"/>
        </mxCell>
        <mxCell id="sort-label" value="Sort by:" style="text;html=1;strokeColor=none;fillColor=none;align=right;verticalAlign=middle;whiteSpace=wrap;rounded=0;fontSize=12;" vertex="1" parent="1">
          <mxGeometry x="880" y="160" width="60" height="25" as="geometry"/>
        </mxCell>
        <mxCell id="sort-select" value="[▼ Date Added (Newest)]" style="rounded=0;whiteSpace=wrap;html=1;fillColor=#ffffff;strokeColor=#666666;align=left;fontSize=11;" vertex="1" parent="1">
          <mxGeometry x="950" y="160" width="170" height="25" as="geometry"/>
        </mxCell>
        <mxCell id="results-grid" value="ART CARDS GRID (3 columns)" style="text;html=1;strokeColor=none;fillColor=none;align=center;verticalAlign=middle;whiteSpace=wrap;rounded=0;fontSize=11;fontStyle=1;fontColor=#999999;" vertex="1" parent="1">
          <mxGeometry x="380" y="210" width="740" height="20" as="geometry"/>
        </mxCell>
        <mxCell id="card1" value="[Image]&#xa;&#xa;Art Title&#xa;[Type] [Period]&#xa;📍 Location" style="rounded=0;whiteSpace=wrap;html=1;fillColor=#ffffff;strokeColor=#666666;align=center;fontSize=11;" vertex="1" parent="1">
          <mxGeometry x="380" y="240" width="220" height="220" as="geometry"/>
        </mxCell>
        <mxCell id="card2" value="[Image]&#xa;&#xa;Art Title&#xa;[Type] [Period]&#xa;📍 Location" style="rounded=0;whiteSpace=wrap;html=1;fillColor=#ffffff;strokeColor=#666666;align=center;fontSize=11;" vertex="1" parent="1">
          <mxGeometry x="630" y="240" width="220" height="220" as="geometry"/>
        </mxCell>
        <mxCell id="card3" value="[Image]&#xa;&#xa;Art Title&#xa;[Type] [Period]&#xa;📍 Location" style="rounded=0;whiteSpace=wrap;html=1;fillColor=#ffffff;strokeColor=#666666;align=center;fontSize=11;" vertex="1" parent="1">
          <mxGeometry x="880" y="240" width="220" height="220" as="geometry"/>
        </mxCell>
        <mxCell id="card4" value="[Image]&#xa;&#xa;Art Title&#xa;[Type] [Period]&#xa;📍 Location" style="rounded=0;whiteSpace=wrap;html=1;fillColor=#ffffff;strokeColor=#666666;align=center;fontSize=11;" vertex="1" parent="1">
          <mxGeometry x="380" y="490" width="220" height="220" as="geometry"/>
        </mxCell>
        <mxCell id="card5" value="[Image]&#xa;&#xa;Art Title&#xa;[Type] [Period]&#xa;📍 Location" style="rounded=0;whiteSpace=wrap;html=1;fillColor=#ffffff;strokeColor=#666666;align=center;fontSize=11;" vertex="1" parent="1">
          <mxGeometry x="630" y="490" width="220" height="220" as="geometry"/>
        </mxCell>
        <mxCell id="card6" value="[Image]&#xa;&#xa;Art Title&#xa;[Type] [Period]&#xa;📍 Location" style="rounded=0;whiteSpace=wrap;html=1;fillColor=#ffffff;strokeColor=#666666;align=center;fontSize=11;" vertex="1" parent="1">
          <mxGeometry x="880" y="490" width="220" height="220" as="geometry"/>
        </mxCell>
        <mxCell id="pagination" value="← Previous  1  [2]  3  4  5  ...  24  Next →" style="text;html=1;strokeColor=none;fillColor=none;align=center;verticalAlign=middle;whiteSpace=wrap;rounded=0;fontSize=13;fontStyle=1" vertex="1" parent="1">
          <mxGeometry x="520" y="1090" width="440" height="30" as="geometry"/>
        </mxCell>
        <mxCell id="footer" value="FOOTER" style="rounded=0;whiteSpace=wrap;html=1;fillColor=#3e2723;strokeColor=#000000;fontColor=#ffffff;align=center;" vertex="1" parent="1">
          <mxGeometry x="40" y="1160" width="1120" height="40" as="geometry"/>
        </mxCell>
        <mxCell id="note1" value="💡 Filters apply&#xa;instantly (AJAX)" style="text;html=1;strokeColor=#b85450;fillColor=#f8cecc;align=left;verticalAlign=middle;whiteSpace=wrap;rounded=0;fontSize=9;" vertex="1" parent="1">
          <mxGeometry x="20" y="350" width="90" height="30" as="geometry"/>
        </mxCell>
        <mxCell id="note2" value="💡 Cards have&#xa;hover effect" style="text;html=1;strokeColor=#b85450;fillColor=#f8cecc;align=left;verticalAlign=middle;whiteSpace=wrap;rounded=0;fontSize=9;" vertex="1" parent="1">
          <mxGeometry x="1160" y="350" width="90" height="30" as="geometry"/>
        </mxCell>
      </root>
    </mxGraphModel>
  </diagram>
</mxfile>
